<?xml version="1.0" encoding="UTF-8"?>
<!DOCTYPE svg PUBLIC "-//W3C//DTD SVG 1.1//EN" "http://www.w3.org/Graphics/SVG/1.1/DTD/svg11.dtd">
<!-- Creator: CorelDRAW -->
<svg xmlns="http://www.w3.org/2000/svg" xml:space="preserve" width="65.3829mm" height="16.575mm" version="1.1" style="shape-rendering:geometricPrecision; text-rendering:geometricPrecision; image-rendering:optimizeQuality; fill-rule:evenodd; clip-rule:evenodd"
viewBox="0 0 1609.16 407.93"
 xmlns:xlink="http://www.w3.org/1999/xlink"
 xmlns:xodm="http://www.corel.com/coreldraw/odm/2003">
 <defs>
  <style type="text/css">
   <![CDATA[
    .fil2 {fill:#749DB0}
    .fil0 {fill:white}
    .fil1 {fill:white;fill-rule:nonzero}
   ]]>
  </style>
 </defs>
 <g id="Layer_x0020_1">
  <metadata id="CorelCorpID_0Corel-Layer"/>
  <g id="_1843946277264">
   <polygon class="fil0" points="-0,404.62 165.44,205.63 248.29,205.63 82.07,405.13 "/>
   <path class="fil0" d="M133.61 404.62l144.89 -174.53c13.31,-16.03 31.24,-24.45 52.09,-24.45l58.66 0 0 50.74 -29.72 0.51c-13.6,0.23 -25.21,5.79 -33.91,16.24l-109.94 132.01 -82.07 -0.51z"/>
   <path class="fil1" d="M478.92 377.51l-10.19 27.64 -58.63 0 77.41 -193.49 49.76 0 77.36 193.49 -58.58 0 -9.81 -27.64 -67.31 0zm52.64 -41.46l-18.21 -51.41 -19.06 51.41 37.26 0zm228.92 -6.89l56.65 0c-5.9,26.51 -23.35,48.73 -52.36,66.6 -14.86,8.11 -31.08,12.17 -48.68,12.17 -31.22,0 -58.3,-13.11 -81.23,-39.24 -14.76,-18.82 -22.12,-39.43 -22.12,-61.93 0,-35.47 15.85,-63.82 47.54,-85.14 17.22,-10.66 36.18,-15.99 56.93,-15.99 27.64,0 52.87,10.66 75.7,32.03 13.63,15.56 22.03,32.26 25.18,50.04l-55.56 0c-3.96,-11.51 -12.45,-21.04 -25.43,-28.49 -6.84,-3.3 -14.01,-4.95 -21.56,-4.95 -19.2,0 -33.54,9.39 -43.11,28.16 -3.35,6.56 -5,14.48 -5,23.77l0 0.57c0,17.97 7.74,32.55 23.21,43.68 7.64,4.77 15.56,7.17 23.77,7.17l4.43 0c18.44,0 32.31,-9.48 41.6,-28.44zm124.25 48.35l-10.19 27.64 -58.63 0 77.4 -193.49 49.76 0 77.36 193.49 -58.58 0 -9.81 -27.64 -67.31 0zm52.64 -41.46l-18.21 -51.41 -19.06 51.41 37.26 0zm105.81 -123.82l82.92 0c0.99,0 6.37,21.18 16.04,63.58 1.84,5.8 5.9,22.36 12.12,49.72l1.13 0 27.07 -113.3 84.57 0 0 192.92 -55.85 0 0 -123.25c-0.9,0 -4.01,11.04 -9.39,33.16 -0.7,1.93 -9.01,31.98 -24.86,90.09l-43.68 0c-0.8,0 -4.15,-11.6 -9.95,-34.81l-24.29 -88.44 -0.56 0 0 123.25 -56.37 0 0 -191.79c0.05,-0.76 0.43,-1.13 1.09,-1.13zm394.43 -0.57l0 45.9 -85.09 0 0 29.29 77.92 0 0 41.46 -77.92 0 0 30.42 85.09 0 0 46.41 -138.16 0 0 -193.49 138.16 0zm171.56 0l0 45.9 -41.46 0 0 147.59 -55.28 0 0 -147.59 -41.42 0 0 -45.9 138.16 0z"/>
   <path class="fil2" d="M264.4 405.13l81.12 -97.72c11.49,-13.85 26.45,-22.01 43.74,-23.99l0 71.09 -42.16 50.62 -82.7 0z"/>
   <path class="fil1" d="M129.9 119.5c-0.1,0.19 -0.24,0.29 -0.38,0.29l0.38 -0.29zm-6.14 -91.41l-33.31 0 0 -27.52 33.31 0 0 27.52zm-47.21 0l-33.41 0 0 -27.52 33.41 0 0 27.52zm-39.88 124c-7.95,0 -14.53,-0.57 -19.65,-1.68l0.14 0.15c-6.28,-1.49 -10.7,-4.65 -13.28,-9.39 -2.6,-4.79 -3.88,-11.89 -3.88,-21.38l0 -75.11 33.31 0 0 65.71c0,5.51 1.97,9.97 6.33,9.97l81.15 0c1.2,0 2.4,0 3.59,-0.05 1.15,-0.05 2.21,-0.15 3.17,-0.24 0.91,-0.09 1.58,-0.19 1.96,-0.29l-0.29 0.14c2.16,-0.72 3.64,-1.88 4.55,-3.45 0.9,-1.54 1.34,-3.64 1.34,-6.37l0 -65.43 33.41 0 0 65.71c0,2.83 0.5,5.03 1.49,6.66 0.98,1.62 2.54,2.83 4.7,3.6l12.51 0 0 31.44 -0.72 0c-10.3,0 -17.64,-5.37 -22.05,-16.15 -1.58,4.31 -3.53,7.78 -5.8,10.4 -2.29,2.65 -5.01,4.07 -8.1,4.65 -1.79,0.33 -4.17,0.77 -7.24,0.91 -3.02,0.14 -6.76,0.19 -11.17,0.19l-95.48 0zm148.3 -31.73l33.7 0 -24.21 0 33.7 0 0 31.73 -33.7 0 24.21 0 -33.7 0 0 -31.73zm52.76 -0.86c-0.09,0.19 -0.24,0.29 -0.43,0.29l0.43 -0.29zm38.45 -9.11c0,2.81 0.55,5.03 1.58,6.66 1.02,1.61 2.54,2.83 4.6,3.6l32.16 0c3.83,0 6.86,-0.27 9.06,-0.77 2.21,-0.5 3.63,-1.55 4.27,-3.02 0.55,-1.25 0.86,-3.31 0.86,-6.18l0 -24.3c0,-5.41 -1.92,-8.87 -5.75,-10.26l-38.2 0c-5.71,0 -8.58,3.89 -8.58,10.26l0 24.01zm18.12 41.7c-10.19,0 -17.5,-5.37 -21.91,-16.15 -1.58,4.31 -3.55,7.77 -5.89,10.4 -2.35,2.63 -5.05,4.09 -8.15,4.65 -1.88,0.34 -4.32,0.78 -7.28,0.91 -3.01,0.14 -6.77,0.19 -11.26,0.19l-13.9 0 0 -31.44c2.06,-0.1 4.27,-0.22 6.61,-0.33 2.35,-0.12 3.93,-0.34 4.79,-0.53l-0.29 0.14c4.02,-1.39 6.04,-4.65 6.04,-9.82l0 -33.56c0,-9.54 1.41,-16.75 4.27,-21.57 2.84,-4.8 7.59,-7.7 14.14,-8.92 2.17,-0.4 4.75,-0.82 7.76,-1.05 3.06,-0.24 6.52,-0.33 10.35,-0.33l46.06 0c3.36,0 6.43,0.1 9.25,0.33 2.78,0.23 5.41,0.63 7.86,1.05 6.84,1.19 11.79,4.03 14.81,8.72 3.01,4.7 4.55,11.94 4.55,21.76l0 43.52c0,9.53 -1.54,16.68 -4.55,21.43 -3.02,4.74 -7.69,7.96 -13.95,9.49 -2.13,0.52 -4.75,0.77 -7.76,0.91 -2.97,0.14 -6.38,0.19 -10.21,0.19l-31.35 0zm121.46 0c-4.2,0 -7.96,-0.15 -11.17,-0.43 -3.21,-0.28 -5.99,-0.62 -8.34,-1.1l0.15 0c-3.21,-0.77 -5.9,-1.92 -8.1,-3.45 -2.2,-1.53 -3.98,-3.55 -5.32,-6.04 -1.34,-2.49 -2.38,-5.46 -2.97,-8.96 -0.6,-3.54 -0.91,-7.62 -0.91,-12.32l0 -108.38 33.31 0 0 98.98c0,5.51 1.97,9.97 6.33,9.97l7.43 0 0 31.73 -10.4 0zm8.29 -31.73l33.7 0 2.92 0 736.46 0 0 31.73 -736.46 0 -2.92 0 -33.7 0 0 -31.73zm920.14 -16.01c0,-2.73 -0.45,-4.98 -1.29,-6.81 -0.83,-1.81 -2.06,-3.32 -3.64,-4.41 -0.99,-0.68 -2.36,-1.1 -3.93,-1.34 -1.58,-0.24 -3.51,-0.39 -5.75,-0.39l-120.5 0 0 -33.26c15.39,-9.82 30.43,-19.52 45.15,-29.05 14.75,-9.55 29.77,-19.27 45.01,-29.1 1.58,4.22 3.04,7.95 4.32,11.26 1.26,3.25 2.64,6.9 4.12,10.93l-57.85 37.34 91.12 0c3.74,0 7.14,0.15 10.12,0.38 3.01,0.24 5.55,0.67 7.72,1.06 6.74,1.19 11.56,4.02 14.43,8.77 2.83,4.69 4.27,11.94 4.27,21.66l0 60.68 -885.34 0 0 -31.73 852.07 0.14 0 -16.15zm86.09 47.74c-4.2,0 -7.96,-0.15 -11.17,-0.43 -3.2,-0.28 -5.99,-0.62 -8.34,-1.1l0.14 0c-3.21,-0.77 -5.9,-1.92 -8.1,-3.45 -2.2,-1.53 -3.98,-3.55 -5.32,-6.04 -1.34,-2.49 -2.38,-5.46 -2.97,-8.96 -0.6,-3.54 -0.91,-7.62 -0.91,-12.32l0 -108.38 33.31 0 0 98.98c0,5.51 1.97,9.97 6.33,9.97l7.43 0 0 31.73 -10.4 0zm8.29 -31.73l36.62 0 0 31.73 -36.62 0 0 -31.73zm46.21 -0.86c-0.1,0.19 -0.24,0.29 -0.43,0.29l0.43 -0.29zm38.44 -9.11c0,2.81 0.55,5.03 1.58,6.66 1.02,1.61 2.54,2.83 4.6,3.6l32.16 0c3.83,0 6.86,-0.27 9.06,-0.77 2.21,-0.5 3.63,-1.55 4.27,-3.02 0.55,-1.25 0.86,-3.31 0.86,-6.18l0 -24.3c0,-5.41 -1.92,-8.87 -5.75,-10.26l-38.2 0c-5.71,0 -8.58,3.89 -8.58,10.26l0 24.01zm18.12 41.7c-10.19,0 -17.5,-5.37 -21.91,-16.15 -1.58,4.31 -3.55,7.77 -5.89,10.4 -2.35,2.63 -5.05,4.09 -8.15,4.65 -1.88,0.34 -4.32,0.78 -7.28,0.91 -3.01,0.14 -6.77,0.19 -11.26,0.19l-13.9 0 0 -31.44c2.06,-0.1 4.27,-0.22 6.62,-0.33 2.35,-0.12 3.93,-0.34 4.79,-0.53l-0.29 0.14c4.03,-1.39 6.04,-4.65 6.04,-9.82l0 -33.56c0,-9.54 1.41,-16.75 4.27,-21.57 2.84,-4.8 7.59,-7.7 14.14,-8.92 2.17,-0.4 4.75,-0.82 7.76,-1.05 3.06,-0.24 6.52,-0.33 10.35,-0.33l46.06 0c3.35,0 6.43,0.1 9.25,0.33 2.78,0.23 5.41,0.63 7.86,1.05 6.84,1.19 11.79,4.03 14.81,8.72 3.02,4.7 4.56,11.94 4.56,21.76l0 43.52c0,9.53 -1.54,16.68 -4.56,21.43 -3.01,4.74 -7.69,7.96 -13.95,9.49 -2.13,0.52 -4.75,0.77 -7.76,0.91 -2.97,0.14 -6.38,0.19 -10.21,0.19l-31.35 0z"/>
  </g>
 </g>
</svg>
