<?xml version="1.0" encoding="UTF-8"?>
<!DOCTYPE svg PUBLIC "-//W3C//DTD SVG 1.1//EN" "http://www.w3.org/Graphics/SVG/1.1/DTD/svg11.dtd">
<!-- Creator: CorelDRAW -->
<svg xmlns="http://www.w3.org/2000/svg" xml:space="preserve" width="65.3829mm" height="16.575mm" version="1.1" style="shape-rendering:geometricPrecision; text-rendering:geometricPrecision; image-rendering:optimizeQuality; fill-rule:evenodd; clip-rule:evenodd"
viewBox="0 0 2285.27 579.33"
 xmlns:xlink="http://www.w3.org/1999/xlink"
 xmlns:xodm="http://www.corel.com/coreldraw/odm/2003">
 <defs>
  <style type="text/css">
   <![CDATA[
    .fil0 {fill:#293790}
    .fil2 {fill:#749DB0}
    .fil1 {fill:#293790;fill-rule:nonzero}
   ]]>
  </style>
 </defs>
 <g id="Layer_x0020_1">
  <metadata id="CorelCorpID_0Corel-Layer"/>
  <g id="_1843955450688">
   <polygon class="fil0" points="-0,574.62 234.95,292.03 352.61,292.03 116.55,575.34 "/>
   <path class="fil0" d="M189.75 574.62l205.77 -247.86c18.9,-22.77 44.37,-34.73 73.97,-34.73l83.31 0 0 72.06 -42.21 0.72c-19.31,0.33 -35.8,8.22 -48.16,23.06l-156.13 187.47 -116.55 -0.72z"/>
   <path class="fil1" d="M680.14 536.13l-14.47 39.25 -83.26 0 109.93 -274.78 70.67 0 109.86 274.78 -83.2 0 -13.93 -39.25 -95.59 0zm74.76 -58.88l-25.86 -73.01 -27.06 73.01 52.92 0zm325.1 -9.78l80.45 0c-8.37,37.65 -33.16,69.2 -74.35,94.59 -21.1,11.52 -44.14,17.28 -69.13,17.28 -44.34,0 -82.8,-18.62 -115.35,-55.73 -20.96,-26.73 -31.41,-56 -31.41,-87.95 0,-50.38 22.51,-90.63 67.52,-120.91 24.45,-15.14 51.38,-22.71 80.85,-22.71 39.25,0 75.09,15.14 107.51,45.49 19.36,22.1 31.28,45.82 35.77,71.07l-78.9 0c-5.63,-16.34 -17.69,-29.87 -36.11,-40.46 -9.71,-4.69 -19.89,-7.03 -30.61,-7.03 -27.26,0 -47.63,13.33 -61.22,39.99 -4.76,9.31 -7.1,20.57 -7.1,33.76l0 0.8c0,25.52 10.99,46.22 32.96,62.03 10.85,6.77 22.1,10.19 33.76,10.19l6.3 0c26.19,0 45.89,-13.46 59.08,-40.39zm176.46 68.66l-14.47 39.25 -83.26 0 109.92 -274.78 70.67 0 109.86 274.78 -83.2 0 -13.93 -39.25 -95.59 0zm74.76 -58.88l-25.86 -73.01 -27.06 73.01 52.92 0zm150.26 -175.84l117.76 0c1.41,0 9.05,30.08 22.77,90.3 2.61,8.24 8.37,31.75 17.21,70.6l1.61 0 38.45 -160.9 120.11 0 0 273.98 -79.31 0 0 -175.04c-1.27,0 -5.69,15.68 -13.33,47.09 -1,2.75 -12.79,45.42 -35.3,127.95l-62.03 0c-1.14,0 -5.89,-16.48 -14.13,-49.44l-34.5 -125.6 -0.8 0 0 175.04 -80.05 0 0 -272.37c0.07,-1.07 0.6,-1.61 1.54,-1.61zm560.16 -0.8l0 65.18 -120.85 0 0 41.6 110.66 0 0 58.88 -110.66 0 0 43.21 120.85 0 0 65.92 -196.21 0 0 -274.78 196.21 0zm243.64 0l0 65.18 -58.88 0 0 209.6 -78.51 0 0 -209.6 -58.82 0 0 -65.18 196.21 0z"/>
   <path class="fil2" d="M375.48 575.34l115.21 -138.78c16.32,-19.67 37.56,-31.26 62.11,-34.06l0 100.95 -59.88 71.89 -117.45 0z"/>
   <path class="fil1" d="M184.48 169.71c-0.14,0.27 -0.34,0.41 -0.55,0.41l0.55 -0.41zm-8.72 -129.81l-47.31 0 0 -39.08 47.31 0 0 39.08zm-67.05 0l-47.44 0 0 -39.08 47.44 0 0 39.08zm-56.63 176.1c-11.29,0 -20.63,-0.81 -27.91,-2.38l0.2 0.21c-8.92,-2.11 -15.2,-6.6 -18.86,-13.34 -3.69,-6.8 -5.51,-16.89 -5.51,-30.36l0 -106.67 47.31 0 0 93.32c0,7.83 2.8,14.16 8.99,14.16l115.25 0c1.7,0 3.41,0 5.1,-0.07 1.63,-0.07 3.14,-0.21 4.49,-0.34 1.29,-0.13 2.24,-0.27 2.79,-0.41l-0.41 0.2c3.07,-1.02 5.16,-2.67 6.47,-4.9 1.28,-2.19 1.91,-5.18 1.91,-9.05l0 -92.92 47.44 0 0 93.32c0,4.02 0.71,7.14 2.11,9.47 1.39,2.3 3.61,4.02 6.67,5.11l17.77 0 0 44.65 -1.02 0c-14.63,0 -25.05,-7.62 -31.31,-22.94 -2.25,6.12 -5.02,11.04 -8.23,14.77 -3.25,3.76 -7.11,5.78 -11.51,6.6 -2.54,0.48 -5.93,1.09 -10.28,1.3 -4.29,0.2 -9.6,0.27 -15.86,0.27l-135.6 0zm210.61 -45.06l47.86 0 -34.39 0 47.85 0 0 45.06 -47.85 0 34.39 0 -47.86 0 0 -45.06zm74.93 -1.22c-0.13,0.27 -0.34,0.41 -0.61,0.41l0.61 -0.41zm54.6 -12.94c0,4 0.78,7.14 2.24,9.47 1.45,2.29 3.61,4.02 6.54,5.11l45.68 0c5.45,0 9.74,-0.38 12.86,-1.09 3.14,-0.71 5.15,-2.2 6.06,-4.29 0.78,-1.78 1.23,-4.7 1.23,-8.78l0 -34.52c0,-7.69 -2.73,-12.59 -8.17,-14.56l-54.25 0c-8.12,0 -12.18,5.52 -12.18,14.56l0 34.1zm25.73 59.23c-14.48,0 -24.85,-7.62 -31.11,-22.94 -2.24,6.12 -5.04,11.03 -8.37,14.77 -3.33,3.74 -7.18,5.8 -11.58,6.6 -2.67,0.48 -6.13,1.1 -10.35,1.3 -4.28,0.2 -9.61,0.27 -16,0.27l-19.74 0 0 -44.65c2.93,-0.14 6.06,-0.31 9.39,-0.48 3.33,-0.17 5.58,-0.48 6.81,-0.75l-0.41 0.2c5.71,-1.97 8.57,-6.6 8.57,-13.95l0 -47.65c0,-13.55 2.01,-23.78 6.06,-30.63 4.04,-6.82 10.78,-10.93 20.08,-12.66 3.08,-0.57 6.74,-1.16 11.02,-1.5 4.35,-0.34 9.26,-0.48 14.7,-0.48l65.42 0c4.77,0 9.13,0.14 13.14,0.48 3.94,0.33 7.68,0.89 11.16,1.5 9.71,1.7 16.75,5.73 21.03,12.39 4.28,6.67 6.47,16.96 6.47,30.9l0 61.81c0,13.54 -2.18,23.69 -6.47,30.43 -4.29,6.73 -10.93,11.3 -19.81,13.47 -3.02,0.74 -6.75,1.1 -11.02,1.3 -4.22,0.2 -9.07,0.27 -14.5,0.27l-44.52 0zm172.5 0c-5.97,0 -11.3,-0.21 -15.86,-0.62 -4.55,-0.4 -8.51,-0.88 -11.85,-1.56l0.21 0c-4.56,-1.09 -8.39,-2.73 -11.51,-4.9 -3.12,-2.17 -5.65,-5.04 -7.56,-8.58 -1.9,-3.54 -3.38,-7.76 -4.22,-12.73 -0.85,-5.03 -1.3,-10.82 -1.3,-17.49l0 -153.91 47.31 0 0 140.57c0,7.82 2.8,14.16 8.99,14.16l10.55 0 0 45.06 -14.77 0zm11.78 -45.06l47.86 0 4.15 0 1045.89 0 0 45.06 -1045.89 0 -4.15 0 -47.86 0 0 -45.06zm1306.74 -22.74c0,-3.88 -0.64,-7.07 -1.83,-9.67 -1.18,-2.57 -2.92,-4.72 -5.17,-6.26 -1.41,-0.96 -3.34,-1.57 -5.58,-1.9 -2.24,-0.34 -4.98,-0.55 -8.17,-0.55l-171.13 0 0 -47.24c21.85,-13.95 43.22,-27.73 64.12,-41.25 20.95,-13.56 42.27,-27.36 63.92,-41.32 2.25,5.99 4.32,11.3 6.13,16 1.78,4.61 3.74,9.8 5.85,15.52l-82.16 53.03 129.4 0c5.31,0 10.15,0.21 14.37,0.54 4.28,0.34 7.88,0.95 10.96,1.5 9.57,1.69 16.42,5.71 20.49,12.46 4.02,6.66 6.06,16.96 6.06,30.76l0 86.18 -1257.32 0 0 -45.06 1210.08 0.2 0 -22.94zm122.26 67.8c-5.97,0 -11.3,-0.21 -15.86,-0.62 -4.55,-0.4 -8.51,-0.88 -11.84,-1.56l0.2 0c-4.56,-1.09 -8.38,-2.73 -11.5,-4.9 -3.12,-2.17 -5.65,-5.04 -7.56,-8.58 -1.9,-3.54 -3.38,-7.76 -4.22,-12.73 -0.85,-5.03 -1.3,-10.82 -1.3,-17.49l0 -153.91 47.31 0 0 140.57c0,7.82 2.8,14.16 8.99,14.16l10.55 0 0 45.06 -14.77 0zm11.78 -45.06l52.01 0 0 45.06 -52.01 0 0 -45.06zm65.62 -1.22c-0.14,0.27 -0.34,0.41 -0.61,0.41l0.61 -0.41zm54.6 -12.94c0,4 0.78,7.14 2.25,9.47 1.45,2.29 3.61,4.02 6.53,5.11l45.68 0c5.45,0 9.74,-0.38 12.86,-1.09 3.13,-0.71 5.15,-2.2 6.06,-4.29 0.78,-1.78 1.23,-4.7 1.23,-8.78l0 -34.52c0,-7.69 -2.72,-12.59 -8.17,-14.56l-54.25 0c-8.12,0 -12.18,5.52 -12.18,14.56l0 34.1zm25.73 59.23c-14.48,0 -24.85,-7.62 -31.11,-22.94 -2.25,6.12 -5.04,11.03 -8.37,14.77 -3.33,3.74 -7.17,5.8 -11.57,6.6 -2.67,0.48 -6.13,1.1 -10.35,1.3 -4.28,0.2 -9.61,0.27 -16,0.27l-19.74 0 0 -44.65c2.93,-0.14 6.06,-0.31 9.4,-0.48 3.33,-0.17 5.58,-0.48 6.81,-0.75l-0.41 0.2c5.72,-1.97 8.58,-6.6 8.58,-13.95l0 -47.65c0,-13.55 2.01,-23.78 6.06,-30.63 4.04,-6.82 10.78,-10.93 20.08,-12.66 3.08,-0.57 6.74,-1.16 11.03,-1.5 4.35,-0.34 9.26,-0.48 14.7,-0.48l65.42 0c4.76,0 9.13,0.14 13.13,0.48 3.95,0.33 7.69,0.89 11.17,1.5 9.71,1.7 16.75,5.73 21.03,12.39 4.29,6.67 6.47,16.96 6.47,30.9l0 61.81c0,13.54 -2.18,23.69 -6.47,30.43 -4.28,6.73 -10.93,11.3 -19.81,13.47 -3.02,0.74 -6.75,1.1 -11.03,1.3 -4.22,0.2 -9.07,0.27 -14.5,0.27l-44.52 0z"/>
  </g>
 </g>
</svg>
